<?xml version="1.0" standalone="no"?>
<!DOCTYPE svg PUBLIC "-//W3C//DTD SVG 1.1//EN" "http://www.w3.org/Graphics/SVG/1.1/DTD/svg11.dtd" >
<svg xmlns="http://www.w3.org/2000/svg">
<metadata></metadata>
<defs>
<font id="niveaboldregular" horiz-adv-x="1201" vert-adv-y="2048" >
<font-face units-per-em="2048" ascent="1536" descent="-512" />
<missing-glyph horiz-adv-x="682" />
<glyph horiz-adv-x="0" vert-adv-y="0" />
<glyph horiz-adv-x="682" />
<glyph unicode=" " horiz-adv-x="682" vert-adv-y="2458" />
<glyph unicode="!" horiz-adv-x="765" vert-adv-y="2458" d="M240 1460l485 34l-86 -948l-325 -54zM260 184q0 89 62 150q64 62 153 62q84 0 147 -62q62 -62 62 -150q0 -87 -62 -150q-63 -62 -150 -62q-88 0 -150 62q-62 63 -62 150z" />
<glyph unicode="&#x22;" horiz-adv-x="1159" vert-adv-y="2458" d="M164 874v576h314v-576h-314zM681 874v576h314v-576h-314z" />
<glyph unicode="#" horiz-adv-x="1301" vert-adv-y="2458" d="M5 369v268h273l32 178h-226v268h273l52 296h268l-52 -296h178l53 296h267l-52 -296h226v-268h-273l-32 -178h226v-268h-273l-52 -297h-268l53 297h-179l-53 -301h-268l53 301h-226zM546 636h179l31 179h-179z" />
<glyph unicode="$" horiz-adv-x="1200" vert-adv-y="2458" d="M80 1066q0 145 88 254q107 132 320 167v179h221v-180q135 -18 294 -81v-374q-262 136 -406 136q-135 0 -135 -92q0 -23 17 -44q29 -33 71 -53l180 -85q196 -93 283 -180q117 -116 117 -291q0 -163 -104 -281q-116 -133 -317 -172v-242h-221v231q-137 8 -353 76l-48 423 q284 -153 480 -153q73 0 112 29q43 31 43 82q0 47 -46 78q-29 20 -143 72l-142 71q-154 77 -225 169q-86 111 -86 261z" />
<glyph unicode="%" horiz-adv-x="1864" vert-adv-y="2458" d="M61 1106q0 167 123 280q118 109 285 109q159 0 275 -109q123 -115 123 -279q0 -163 -123 -279q-115 -109 -280 -109t-280 109q-123 116 -123 278zM348 0l895 1450h263l-895 -1450h-263zM355 1107q0 -50 30 -85q33 -39 79 -39q47 0 79 39q30 35 30 85t-30 85 q-33 39 -80 39q-45 0 -78 -39q-30 -35 -30 -85zM996 342q0 167 123 280q118 109 285 109q159 0 275 -109q123 -115 123 -279q0 -163 -123 -279q-115 -109 -280 -109t-280 109q-123 116 -123 278zM1290 343q0 -50 30 -85q33 -39 79 -39t79 39q30 35 30 85t-30 85 q-33 39 -80 39q-45 0 -78 -39q-30 -35 -30 -85z" />
<glyph unicode="&#x26;" horiz-adv-x="1515" vert-adv-y="2458" d="M68 400q0 176 124 305q60 62 167 133q-52 67 -71 95q-63 92 -63 198q0 152 119 256q123 107 312 107q187 0 310 -104q126 -105 126 -264q0 -196 -236 -356l185 -217q36 57 81 188l320 -93q-28 -117 -61 -190q-38 -87 -107 -178l234 -280h-469l-40 46q-193 -91 -387 -91 q-225 0 -378 115q-166 125 -166 330zM478 446q0 -74 49 -118q44 -39 113 -39q53 0 132 37l-224 275q-70 -62 -70 -155zM594 1127q0 -46 31 -83q9 -12 44 -50l33 33q42 35 42 99q0 36 -18 60q-20 28 -54 28q-33 0 -56 -25q-22 -24 -22 -62z" />
<glyph unicode="'" horiz-adv-x="642" vert-adv-y="2458" d="M164 874v576h314v-576h-314z" />
<glyph unicode="(" horiz-adv-x="713" vert-adv-y="2458" d="M61 759q0 385 266 793h358q-87 -164 -130 -265q-112 -267 -112 -528t112 -528q43 -103 130 -265h-358q-266 406 -266 793z" />
<glyph unicode=")" horiz-adv-x="713" vert-adv-y="2458" d="M27 -34q87 162 130 265q112 267 112 528t-112 528q-43 100 -130 265h358q266 -409 266 -793q0 -387 -266 -793h-358z" />
<glyph unicode="*" horiz-adv-x="1052" vert-adv-y="2458" d="M55 1056l95 299l268 -151l-59 298h332l-59 -297l268 152l97 -301l-315 -37l234 -216l-267 -189l-124 270l-124 -271l-264 190l231 216z" />
<glyph unicode="+" vert-adv-y="2458" d="M130 573v328h307v307h328v-307h307v-328h-307v-307h-328v307h-307z" />
<glyph unicode="," horiz-adv-x="669" vert-adv-y="2458" d="M41 -243l189 612h382l-243 -612h-328z" />
<glyph unicode="-" horiz-adv-x="423" vert-adv-y="2458" d="M0 573v328h423v-328h-423z" />
<glyph unicode="." horiz-adv-x="587" vert-adv-y="2458" d="M82 184q0 89 62 150q64 62 153 62q84 0 147 -62q62 -62 62 -150t-62 -150t-150 -62q-87 0 -150 62q-62 62 -62 150z" />
<glyph unicode="/" horiz-adv-x="890" vert-adv-y="2458" d="M8 0l505 1450h369l-505 -1450h-369z" />
<glyph unicode="0" vert-adv-y="2458" d="M55 725q0 211 54 379q67 206 212 306q123 84 287 84q150 0 274 -85q145 -98 212 -305q54 -168 54 -380q0 -211 -54 -379q-67 -207 -212 -306q-123 -84 -281 -84q-157 0 -280 84q-146 99 -212 306q-54 167 -54 380zM464 724q0 -205 41 -308q37 -92 96 -92q65 0 103 111 q34 102 34 291q0 204 -41 307q-37 92 -97 92q-64 0 -102 -111q-34 -102 -34 -290z" />
<glyph unicode="1" horiz-adv-x="908" vert-adv-y="2458" d="M115 1120l48 330h589v-1450h-410v1120h-227z" />
<glyph unicode="2" vert-adv-y="2458" d="M-13 0l616 776q54 67 77 111q27 52 27 104q0 60 -37 98q-36 36 -93 36q-82 0 -155 -81q-23 -25 -74 -107l-319 187q95 161 191 241q154 129 374 129q221 0 365 -123q164 -139 164 -358q0 -152 -91 -285q-39 -58 -189 -240l-102 -126h413l-61 -362h-1106z" />
<glyph unicode="3" vert-adv-y="2458" d="M27 158l211 305q97 -68 140 -90q98 -49 179 -49q79 0 123 43q43 41 43 109q0 106 -110 142q-46 16 -189 22v218q117 3 168 19q101 29 101 130q0 54 -34 89q-42 43 -114 43q-119 0 -259 -129l-211 259q254 225 534 225q211 0 352 -118q142 -119 142 -300q0 -175 -165 -301 q62 -39 103 -90q92 -113 92 -264q0 -195 -144 -325q-156 -141 -408 -141q-200 0 -372 86q-76 38 -182 117z" />
<glyph unicode="4" vert-adv-y="2458" d="M-29 271l746 1179h380v-858h104l-27 -321h-75v-271h-396v271h-732zM501 557h223v372z" />
<glyph unicode="5" horiz-adv-x="1202" vert-adv-y="2458" d="M31 116l164 333q168 -124 323 -124q94 0 147 58q45 49 45 122q0 76 -50 124q-61 58 -181 58q-115 0 -276 -47v810h863l-48 -348h-467v-117q66 2 75 2q206 0 352 -134q155 -143 155 -365q0 -235 -169 -385q-165 -147 -422 -147q-269 0 -511 160z" />
<glyph unicode="6" vert-adv-y="2458" d="M44 502q0 290 275 636q98 124 286 312h473q-140 -128 -234 -229q-122 -134 -197 -245q165 -14 282 -87q99 -62 157 -163q64 -112 64 -247q0 -221 -159 -372q-161 -152 -397 -152q-226 0 -381 147q-79 74 -122 174q-47 108 -47 226zM453 483q0 -69 41 -122q40 -51 103 -51 q59 0 101 50q42 51 42 123q0 73 -41 123q-42 50 -104 50q-46 0 -84 -33q-58 -51 -58 -140z" />
<glyph unicode="7" horiz-adv-x="1202" vert-adv-y="2458" d="M66 1102l41 348h1081l-611 -1450h-437l483 1102h-557z" />
<glyph unicode="8" vert-adv-y="2458" d="M55 416q0 230 213 366q-179 120 -179 303q0 174 138 289q145 120 374 120t374 -120q138 -115 138 -289q0 -184 -179 -303q214 -136 214 -366q0 -199 -153 -329q-155 -132 -394 -132q-238 0 -393 132q-153 130 -153 329zM465 445q0 -62 36 -100q38 -42 100 -42t102 43 q35 38 35 98q0 77 -54 118q-26 21 -62 34l-24 9l-20 -8q-113 -49 -113 -152zM478 1061q0 -55 38 -91q21 -21 50 -35l34 -15q124 54 124 138q0 48 -27 77q-35 38 -96 38q-59 0 -94 -37q-29 -30 -29 -75z" />
<glyph unicode="9" vert-adv-y="2458" d="M51 970q0 222 159 372q161 152 397 152q226 0 381 -147q79 -73 122 -174q47 -108 47 -226q0 -290 -275 -636q-98 -123 -286 -311h-473q139 127 234 229q122 134 197 245q-165 13 -282 87q-99 62 -157 163q-64 111 -64 246zM461 966q0 -72 41 -122q42 -50 103 -50 q81 0 122 82q21 41 21 90q0 71 -41 122t-104 51q-58 0 -100 -50t-42 -123z" />
<glyph unicode=":" horiz-adv-x="628" vert-adv-y="2458" d="M123 184q0 89 62 150q64 62 153 62q84 0 147 -62q62 -62 62 -150t-62 -150t-150 -62q-87 0 -150 62q-62 62 -62 150zM123 874q0 89 62 150q64 62 153 62q84 0 147 -62q62 -62 62 -150t-62 -150t-150 -62q-87 0 -150 62q-62 62 -62 150z" />
<glyph unicode=";" horiz-adv-x="628" vert-adv-y="2458" d="M-45 -243l189 612h382l-243 -612h-328zM123 874q0 89 62 150q64 62 153 62q84 0 147 -62q62 -62 62 -150t-62 -150q-63 -62 -150 -62q-88 0 -150 62q-62 63 -62 150z" />
<glyph unicode="&#x3c;" horiz-adv-x="1044" vert-adv-y="2458" d="M130 737l552 552l232 -232l-328 -320l328 -319l-232 -233z" />
<glyph unicode="=" vert-adv-y="2458" d="M130 300v328h942v-328h-942zM130 819v328h942v-328h-942z" />
<glyph unicode="&#x3e;" horiz-adv-x="1044" vert-adv-y="2458" d="M130 418l329 319l-329 320l232 232l552 -552l-552 -552z" />
<glyph unicode="?" horiz-adv-x="1047" vert-adv-y="2458" d="M191 1126l41 343q158 26 251 26q231 0 367 -104q142 -109 142 -289q0 -285 -368 -416l-6 -140l-353 -54v366q145 34 215 72q102 56 102 138q0 47 -31 75q-34 31 -98 31q-134 0 -262 -48zM233 184q0 89 62 150q64 62 152 62q85 0 148 -62q62 -62 62 -150t-62 -150 q-63 -62 -150 -62q-88 0 -150 62t-62 150z" />
<glyph unicode="@" horiz-adv-x="1513" vert-adv-y="2458" d="M75 725q0 336 229 557q213 205 511 205q188 0 348 -74q116 -53 262 -142v-662q0 -156 13 -235l-284 -21l-17 55q-92 -55 -196 -55q-138 0 -228 89q-110 109 -110 279q0 172 112 282q107 105 255 105q54 0 156 -17v42q-124 93 -288 93q-178 0 -292 -123 q-128 -138 -128 -365q0 -239 134 -376q121 -125 305 -125q70 0 174 29l114 -233q-105 -39 -172 -53t-154 -14q-306 0 -515 202q-229 222 -229 557zM880 722q0 -89 47 -135q38 -37 96 -37q49 0 103 39v301q-41 21 -81 21q-65 0 -110 -44q-55 -54 -55 -145z" />
<glyph unicode="A" horiz-adv-x="1507" vert-adv-y="2458" d="M-27 0l789 1502l772 -1502h-453l-73 171h-523l-72 -171h-440zM618 492h257l-128 294z" />
<glyph unicode="B" horiz-adv-x="1304" vert-adv-y="2458" d="M150 0v1450h479q177 0 284 -36q262 -88 262 -341q0 -191 -173 -296q83 -46 127 -98q87 -102 87 -253q0 -209 -169 -320q-101 -66 -218 -86q-116 -20 -252 -20h-427zM560 348h61q172 0 172 135q0 69 -52 107q-43 31 -120 31h-61v-273zM560 874h53q67 0 104 28q45 35 45 95 q0 112 -149 112h-53v-235z" />
<glyph unicode="C" horiz-adv-x="1331" vert-adv-y="2458" d="M68 725q0 231 117 420q112 179 308 272q163 77 345 77q220 0 438 -115l-47 -424q-90 75 -155 108q-107 56 -215 56q-155 0 -253 -104q-101 -107 -101 -288q0 -185 108 -291q107 -106 275 -106q194 0 402 175l-48 -444q-188 -106 -412 -106q-276 0 -485 170 q-123 100 -193 239q-84 165 -84 361z" />
<glyph unicode="D" horiz-adv-x="1516" vert-adv-y="2458" d="M150 0v1450h423q404 0 626 -183q116 -96 179 -241q62 -142 62 -301q0 -216 -108 -390q-208 -335 -759 -335h-423zM573 369h52q176 0 272 88q106 97 106 268q0 187 -124 283q-94 73 -254 73h-52v-712z" />
<glyph unicode="E" horiz-adv-x="1191" vert-adv-y="2458" d="M150 0v1450h938v-369h-528v-175h453v-355h-453v-182h535v-369h-945z" />
<glyph unicode="F" horiz-adv-x="1163" vert-adv-y="2458" d="M150 0v1450h945v-369h-522v-213h481v-355h-481v-513h-423z" />
<glyph unicode="G" horiz-adv-x="1526" vert-adv-y="2458" d="M75 722q0 336 229 557q224 215 569 215q234 0 465 -115l-48 -397q-206 144 -391 144q-171 0 -279 -111t-108 -289t103 -288q106 -114 270 -114q66 0 143 31v130h-220v355h609v-731q-84 -47 -181 -82q-206 -72 -381 -72q-323 0 -543 204q-111 103 -173 244 q-64 148 -64 319z" />
<glyph unicode="H" horiz-adv-x="1570" vert-adv-y="2458" d="M150 0v1450h423v-508h424v508h423v-1450h-423v573h-424v-573h-423z" />
<glyph unicode="I" horiz-adv-x="724" vert-adv-y="2458" d="M150 0v1450h423v-1450h-423z" />
<glyph unicode="J" horiz-adv-x="949" vert-adv-y="2458" d="M27 386q114 -55 201 -55t121 62q27 49 27 141v916h423v-967q0 -261 -143 -396q-137 -131 -368 -131q-92 0 -220 27z" />
<glyph unicode="K" horiz-adv-x="1488" vert-adv-y="2458" d="M150 0v1450h423v-505l389 505h478l-526 -648l574 -802h-512l-403 587v-587h-423z" />
<glyph unicode="L" horiz-adv-x="1109" vert-adv-y="2458" d="M150 0v1450h423v-1081h522v-369h-945z" />
<glyph unicode="M" horiz-adv-x="1762" vert-adv-y="2458" d="M7 0l397 1502l477 -821l477 821l397 -1502h-425l-138 520l-325 -575l-324 575l-127 -520h-409z" />
<glyph unicode="N" horiz-adv-x="1570" vert-adv-y="2458" d="M150 0v1502l860 -655v603h410v-1505l-860 676v-621h-410z" />
<glyph unicode="O" horiz-adv-x="1693" vert-adv-y="2458" d="M75 723q0 230 110 411q113 187 321 286q158 74 350 74q204 0 385 -103q198 -112 297 -313q80 -160 80 -354q0 -337 -229 -557q-111 -106 -259 -162q-136 -50 -284 -50q-214 0 -394 102q-197 112 -297 314q-80 160 -80 352zM512 726q0 -183 111 -298q94 -96 224 -96 q129 0 223 96q111 115 111 296q0 183 -111 298q-93 97 -227 97q-130 0 -225 -102q-106 -114 -106 -291z" />
<glyph unicode="P" horiz-adv-x="1222" vert-adv-y="2458" d="M150 0v1450h394q197 0 312 -37q176 -57 266 -198q73 -115 73 -255q0 -228 -178 -364q-164 -125 -427 -125h-30v-471h-410zM560 792l53 3q81 4 124 54q35 42 35 108q0 145 -159 145h-53v-310z" />
<glyph unicode="Q" horiz-adv-x="1693" vert-adv-y="2458" d="M75 747q0 327 229 541q111 103 259 157q136 49 284 49q213 0 394 -100q197 -108 297 -303q80 -156 80 -344q0 -328 -229 -541q-111 -103 -259 -157q-135 -49 -283 -49q-21 0 -57 2l-1 -20q134 -37 176 -50q201 -59 272 -70q49 -7 197 -15l-93 -330q-149 9 -258 35 q-100 27 -323 115q-171 68 -275 91q-74 15 -224 23q29 179 91 341l13 34q-290 222 -290 591zM512 725q0 -183 111 -298q93 -96 224 -96q129 0 223 96q111 116 111 297q0 183 -111 298q-94 97 -227 97q-130 0 -225 -102q-106 -114 -106 -292z" />
<glyph unicode="R" horiz-adv-x="1338" vert-adv-y="2458" d="M150 0v1450h421q189 0 303 -36q164 -52 244 -172q70 -105 70 -240q0 -156 -99 -262q-51 -55 -135 -104l412 -636h-491l-315 560v-560h-410zM560 803l56 3q79 3 121 52q35 40 35 105q0 139 -156 139h-56v-299z" />
<glyph unicode="S" horiz-adv-x="1153" vert-adv-y="2458" d="M75 1059q0 187 131 308q137 127 363 127q172 0 394 -90v-387q-236 136 -370 136q-115 0 -115 -77q0 -47 69 -85l167 -92q150 -82 195 -118q176 -140 176 -358q0 -204 -152 -336t-400 -132q-166 0 -405 79l-48 437q262 -154 452 -154q57 0 92 26q38 27 38 73q0 44 -40 74 q-25 19 -123 68l-133 71q-144 77 -211 169q-80 111 -80 261z" />
<glyph unicode="T" horiz-adv-x="1207" vert-adv-y="2458" d="M-14 1081v369h1234v-369h-405v-1081h-423v1081h-406z" />
<glyph unicode="U" horiz-adv-x="1529" vert-adv-y="2458" d="M150 623v827h423v-820q0 -145 46 -221q25 -42 70 -67q43 -24 92 -24q98 0 152 82q50 78 50 225v825h396v-825q0 -297 -145 -471q-165 -198 -471 -198q-285 0 -452 177q-161 172 -161 490z" />
<glyph unicode="V" horiz-adv-x="1425" vert-adv-y="2458" d="M-20 1450h461l287 -657l282 657h436l-733 -1505z" />
<glyph unicode="W" horiz-adv-x="1843" vert-adv-y="2458" d="M-20 1450h445l233 -583l277 635l286 -635l223 583h420l-621 -1505l-320 682l-322 -682z" />
<glyph unicode="X" horiz-adv-x="1489" vert-adv-y="2458" d="M-14 0l531 752l-476 698h471l240 -358l245 358h450l-476 -683l531 -767h-485l-280 423l-287 -423h-464z" />
<glyph unicode="Y" horiz-adv-x="1402" vert-adv-y="2458" d="M-20 1450h468l265 -392l265 392h445l-524 -756v-694h-423v681z" />
<glyph unicode="Z" horiz-adv-x="1323" vert-adv-y="2458" d="M-14 0l612 1081h-534l54 369h1179l-610 -1081h615l-55 -369h-1261z" />
<glyph unicode="[" horiz-adv-x="590" vert-adv-y="2458" d="M41 -34v1590h549v-287h-191v-1016h191v-287h-549z" />
<glyph unicode="\" horiz-adv-x="890" vert-adv-y="2458" d="M8 1450h369l505 -1450h-369z" />
<glyph unicode="]" horiz-adv-x="590" vert-adv-y="2458" d="M0 -34v287h191v1016h-191v287h549v-1590h-549z" />
<glyph unicode="^" horiz-adv-x="1186" vert-adv-y="2458" d="M41 919l552 552l552 -552l-232 -233l-320 329l-320 -329z" />
<glyph unicode="_" horiz-adv-x="1161" vert-adv-y="2458" d="M-20 -137h1201v-273h-1201v273z" />
<glyph unicode="`" horiz-adv-x="1365" vert-adv-y="2458" d="M294 1455l96 264l601 -220l-96 -264z" />
<glyph unicode="a" horiz-adv-x="1358" vert-adv-y="2458" d="M61 551q0 272 177 447q168 166 429 166q105 0 236 -33l332 33v-791q0 -243 20 -373l-364 -32l-27 86q-142 -87 -290 -87q-196 0 -338 141q-175 173 -175 443zM457 551q0 -141 74 -213q60 -59 152 -59q78 0 164 62v477q-66 34 -129 34q-102 0 -174 -70q-87 -84 -87 -231z " />
<glyph unicode="b" horiz-adv-x="1371" vert-adv-y="2458" d="M135 -32v1482l388 32v-396q149 78 285 78q204 0 339 -133q162 -159 162 -449q0 -284 -169 -454q-82 -83 -178 -118q-118 -43 -272 -43q-86 0 -220 20l-86 13zM523 299q72 -20 128 -20q106 0 174 65q88 85 88 228q0 127 -72 205q-57 62 -142 62q-70 0 -176 -65v-475z" />
<glyph unicode="c" horiz-adv-x="1146" vert-adv-y="2458" d="M61 544q0 254 175 430q189 190 471 190q195 0 356 -98l-43 -352q-74 64 -128 88q-81 37 -163 37q-122 0 -200 -78q-83 -83 -83 -216q0 -122 69 -190q77 -76 200 -76q98 0 204 64q51 30 144 110l-35 -372q-84 -51 -140 -73q-109 -41 -228 -41q-261 0 -437 176 q-162 163 -162 401z" />
<glyph unicode="d" horiz-adv-x="1370" vert-adv-y="2458" d="M61 551q0 272 177 447q168 166 407 166q99 0 202 -40v326l388 32v-1109q0 -242 20 -373l-364 -32l-27 86q-142 -87 -290 -87q-196 0 -338 141q-175 173 -175 443zM457 551q0 -141 74 -213q60 -59 152 -59q79 0 164 62v477q-66 34 -129 34q-102 0 -174 -70 q-87 -84 -87 -231z" />
<glyph unicode="e" horiz-adv-x="1286" vert-adv-y="2458" d="M61 561q0 248 170 418q185 185 452 185q190 0 331 -99q139 -97 187 -267q24 -86 24 -174q0 -25 -3 -69l-768 -124q33 -69 89 -105q86 -55 187 -55q117 0 267 65q63 27 175 91l-43 -355q-239 -105 -440 -105q-254 0 -425 141q-203 167 -203 453zM435 676l453 70 q-56 131 -202 131q-136 0 -207 -95q-29 -39 -44 -106z" />
<glyph unicode="f" horiz-adv-x="863" vert-adv-y="2458" d="M41 806v325h162v92q0 154 98 269q67 80 194 119q93 28 206 28q62 0 165 -7l-41 -340q-62 16 -104 16q-65 0 -97 -33q-25 -25 -25 -60v-84h266v-325h-266v-806h-396v806h-162z" />
<glyph unicode="g" horiz-adv-x="1358" vert-adv-y="2458" d="M61 551q0 272 177 447q168 166 430 166q106 0 235 -33l332 33v-1126q0 -191 -63 -314q-140 -272 -520 -272q-212 0 -477 102l-5 335q119 -61 195 -88q120 -42 228 -42q168 0 235 108q31 50 31 163v27q-83 -51 -143.5 -70.5t-137.5 -19.5q-200 0 -342 141 q-175 173 -175 443zM457 551q0 -141 74 -213q60 -59 152 -59q78 0 164 62v477q-66 34 -129 34q-102 0 -174 -70q-87 -84 -87 -231z" />
<glyph unicode="h" horiz-adv-x="1363" vert-adv-y="2458" d="M135 0v1450l388 32v-506q98 107 187 147q89 41 194 41q167 0 257 -92q100 -103 100 -306v-766h-385v631q0 177 -146 177q-85 0 -139 -53q-68 -68 -68 -213v-542h-388z" />
<glyph unicode="i" horiz-adv-x="636" vert-adv-y="2458" d="M105 1465q0 90 62 150q64 62 155 62q87 0 149 -61t62 -151t-64 -154q-62 -62 -150 -62q-118 0 -182 103q-32 52 -32 113zM123 0v1131l393 33v-1164h-393z" />
<glyph unicode="j" horiz-adv-x="636" vert-adv-y="2458" d="M105 1465q0 90 62 150q64 62 155 62q87 0 149 -61t62 -151t-64 -154q-63 -62 -150 -62q-118 0 -182 103q-32 52 -32 113zM123 -390v1521l393 33v-1515z" />
<glyph unicode="k" horiz-adv-x="1343" vert-adv-y="2458" d="M135 0v1450l375 32v-772l342 421h406l-413 -477l511 -654h-429l-417 580v-580h-375z" />
<glyph unicode="l" horiz-adv-x="663" vert-adv-y="2458" d="M135 0v1450l393 32v-1482h-393z" />
<glyph unicode="m" horiz-adv-x="2074" vert-adv-y="2458" d="M123 0v1131l360 33v-219q78 89 128 126q123 93 273 93t243 -84q43 -40 91 -129q70 83 116 119q124 94 281 94q165 0 253 -88q104 -104 104 -341v-735h-388v631q0 94 -46 141q-35 36 -96 36q-79 0 -132 -52q-69 -69 -69 -214v-542h-388v631q0 94 -46 141q-35 36 -96 36 q-79 0 -131 -52q-69 -69 -69 -214v-542h-388z" />
<glyph unicode="n" horiz-adv-x="1351" vert-adv-y="2458" d="M123 0v1131l357 33v-219q76 87 124 123q129 96 289 96q166 0 256 -92q100 -103 100 -306v-766h-385v631q0 177 -146 177q-85 0 -139 -53q-68 -68 -68 -213v-542h-388z" />
<glyph unicode="o" horiz-adv-x="1339" vert-adv-y="2458" d="M55 567q0 167 88 315q83 138 233 214q133 68 301 68q178 0 329 -92q138 -84 212 -229q67 -132 67 -277q0 -170 -90 -317q-85 -140 -234 -215q-133 -67 -294 -67q-211 0 -370 115q-153 110 -211 293q-31 97 -31 192zM451 559q0 -147 82 -225q56 -55 136 -55q77 0 134 54 q84 80 84 225q0 149 -84 227q-58 54 -137 54q-77 0 -133 -54q-82 -79 -82 -226z" />
<glyph unicode="p" horiz-adv-x="1358" vert-adv-y="2458" d="M102 1131l364 33l26 -87q144 87 291 87q196 0 338 -141q175 -173 175 -443q0 -272 -177 -447q-168 -166 -406 -166q-100 0 -203 40v-365l-388 -32v1148q0 238 -20 373zM510 313q66 -34 129 -34q102 0 174 70q87 84 87 230q0 143 -73 214q-61 59 -153 59q-78 0 -164 -62 v-477z" />
<glyph unicode="q" horiz-adv-x="1358" vert-adv-y="2458" d="M61 551q0 272 177 447q168 166 429 166q105 0 236 -33l332 33v-1522l-388 -32v434q-126 -77 -274 -77q-195 0 -337 141q-175 173 -175 443zM457 551q0 -141 74 -213q60 -59 152 -59q79 0 164 62v477q-66 34 -129 34q-102 0 -174 -70q-87 -84 -87 -231z" />
<glyph unicode="r" horiz-adv-x="945" vert-adv-y="2458" d="M123 0v1131l370 33v-228q59 95 109 136q110 92 271 92h30l-40 -421l-43 3h-13q-151 0 -221 -70q-50 -52 -63 -130q-10 -59 -10 -130v-416h-390z" />
<glyph unicode="s" horiz-adv-x="1030" vert-adv-y="2458" d="M120 411q133 -84 212 -120q90 -40 174 -40q61 0 92 29q23 21 23 47q0 55 -104 96l-95 38q-130 51 -203 116q-89 80 -89 220q0 148 105 255q117 119 315 119q145 0 311 -67v-311q-197 98 -304 98q-46 0 -70 -21q-24 -22 -24 -53q0 -34 34 -53q21 -12 65 -28l116 -42 q139 -52 199 -108q96 -90 96 -236q0 -166 -107 -272q-117 -117 -345 -117q-196 0 -383 96z" />
<glyph unicode="t" horiz-adv-x="850" vert-adv-y="2458" d="M41 806v325h162v319l396 32v-351h251v-325h-251v-377q0 -105 154 -105q49 0 111 16l-37 -340q-89 -9 -146 -9q-174 0 -312 87q-166 105 -166 331v397h-162z" />
<glyph unicode="u" horiz-adv-x="1351" vert-adv-y="2458" d="M102 365v766l388 33v-664q0 -177 145 -177q87 0 139 53q69 69 69 213v542l385 33v-1164l-358 -32v218q-74 -87 -122 -123q-128 -96 -287 -96q-166 0 -257 92q-102 102 -102 306z" />
<glyph unicode="v" horiz-adv-x="1150" vert-adv-y="2458" d="M-14 1131h428l186 -481l186 481h377l-574 -1183z" />
<glyph unicode="w" horiz-adv-x="1734" vert-adv-y="2458" d="M-14 1131h418l218 -504l277 556l265 -556l215 504h368l-594 -1183l-275 572l-290 -572z" />
<glyph unicode="x" horiz-adv-x="1247" vert-adv-y="2458" d="M-14 0l429 558l-403 573h454l187 -269l192 269h394l-403 -530l424 -601h-456l-207 297l-213 -297h-398z" />
<glyph unicode="y" horiz-adv-x="1172" vert-adv-y="2458" d="M-14 1131h420l197 -669l211 669h371l-551 -1489l-392 -32l171 390z" />
<glyph unicode="z" horiz-adv-x="1131" vert-adv-y="2458" d="M-14 0l486 806h-418l69 325h979l-487 -806h471l-45 -325h-1055z" />
<glyph unicode="{" horiz-adv-x="702" vert-adv-y="2458" d="M4 761q83 81 106 137q18 43 18 133q0 22 -1 41l-8 127q-1 11 -1 25q0 107 36 168q99 164 450 164h57v-286h-27q-73 0 -118 -57q-40 -50 -40 -126q0 -9 1 -22l8 -158v-11q0 -39 -12 -64q-18 -38 -104 -71q90 -34 107 -77q9 -24 9 -58v-11l-8 -158q-1 -13 -1 -22 q0 -87 51 -138q44 -44 107 -44h27v-287h-57q-282 0 -398 103q-49 44 -69 97q-19 51 -19 132q0 15 1 25l8 127q1 20 1 42q0 90 -18 133q-23 55 -106 136z" />
<glyph unicode="|" horiz-adv-x="538" vert-adv-y="2458" d="M85 -410v1860h369v-1860h-369z" />
<glyph unicode="}" horiz-adv-x="702" vert-adv-y="2458" d="M41 -34v287h27q73 0 118 56q40 51 40 126q0 9 -1 22l-8 158v11q0 39 12 65q18 38 104 70q-90 34 -107 77q-9 24 -9 58v11l8 158q1 13 1 22q0 87 -51 139q-44 44 -107 44h-27v286h57q282 0 398 -103q49 -43 69 -96q19 -52 19 -132q0 -15 -1 -26l-8 -127q-1 -19 -1 -41 q0 -90 18 -133q23 -56 106 -137q-83 -81 -106 -136q-18 -43 -18 -133q0 -22 1 -42l8 -127q1 -10 1 -25q0 -107 -36 -167q-99 -165 -450 -165h-57z" />
<glyph unicode="~" vert-adv-y="2458" d="M113 818q77 69 126 96q92 49 197 49q71 0 128 -23l89 -36q63 -26 108 -26q77 0 192 90l134 -259q-77 -69 -126 -96q-91 -49 -195 -49q-72 0 -129 23l-90 37q-62 25 -108 25q-76 0 -192 -89z" />
<glyph horiz-adv-x="1307" vert-adv-y="2458" d="M-41 598l34 241h104q26 205 139 356q107 143 274 222q163 77 347 77q146 0 311 -57l-105 -358q-106 40 -191 40q-120 0 -212 -65q-85 -60 -111 -153q-6 -21 -12 -62h460l-69 -241h-391q13 -68 34 -102q59 -93 180 -137q75 -28 154 -28q61 0 113 14t137 54l-50 -402 q-126 -42 -251 -42q-223 0 -402 107q-209 125 -305 339q-38 86 -53 197h-135z" />
<glyph unicode="&#xa0;" horiz-adv-x="682" vert-adv-y="2458" />
<glyph unicode="&#xa1;" horiz-adv-x="765" vert-adv-y="2458" d="M41 -34l85 948l326 55l74 -969zM82 1275q0 90 62 151q64 62 152 62q85 0 148 -62q62 -62 62 -150t-62 -150t-150 -62t-150 62t-62 149z" />
<glyph unicode="&#xa2;" horiz-adv-x="1256" vert-adv-y="2458" d="M74 572q0 210 119 374q132 183 337 241q45 13 119 27v179h221v-179q147 -26 257 -94l-46 -371q-78 68 -134 93q-85 39 -171 39q-128 0 -211 -82q-87 -87 -87 -227q0 -127 73 -200q80 -79 210 -79q103 0 215 67q53 32 151 116l-38 -392q-100 -62 -219 -99v-185h-221v170 q-87 9 -143 25q-197 55 -322 227q-110 150 -110 350z" />
<glyph unicode="&#xa3;" horiz-adv-x="1202" vert-adv-y="2458" d="M57 -44v371q212 84 219 301h-219v260h178q-42 140 -42 211q0 168 120 279q125 116 332 116q192 0 327 -105q58 -46 137 -141l-263 -201q-12 14 -48 59q-54 67 -124 67q-48 0 -72 -31q-20 -26 -20 -65q0 -29 24 -106q2 -7 24 -83h297v-260h-273q-4 -147 -61 -255 q105 -62 174 -62q54 0 93 39q13 13 50 66l283 -177q-115 -274 -393 -274q-124 0 -240 58q-56 28 -149 86q-153 -126 -354 -153z" />
<glyph unicode="&#xa4;" horiz-adv-x="1241" vert-adv-y="2458" d="M85 540l157 157q-43 87 -43 188q0 104 44 189l-154 154l192 191l153 -153q85 43 187 43q105 0 192 -45l155 155l191 -191l-156 -157q42 -83 42 -186q0 -101 -41 -185l159 -160l-191 -191l-158 159q-87 -45 -191 -45q-103 0 -190 43l-157 -157zM437 885q0 -76 54 -130 t132 -54q77 0 132 54q54 54 54 130q0 59 -36 109q-57 78 -153 78q-73 0 -128 -55t-55 -132z" />
<glyph unicode="&#xa5;" horiz-adv-x="1448" vert-adv-y="2458" d="M2 1450h468l279 -419l251 419h445l-399 -562h148v-260h-246v-628h-423v628h-246v260h138z" />
<glyph unicode="&#xa6;" horiz-adv-x="538" vert-adv-y="2458" d="M85 358h369v-768h-369v768zM85 683v767h369v-767h-369z" />
<glyph unicode="&#xa7;" horiz-adv-x="952" vert-adv-y="2458" d="M-6 583q0 169 148 281q-35 39 -51 65q-44 70 -44 165q0 156 111 268q123 125 333 125q153 0 324 -69v-327q-207 102 -319 102q-48 0 -73 -22q-26 -23 -26 -55q0 -36 37 -56q19 -11 67 -28l122 -46q163 -60 223 -113q42 -37 69 -97q34 -73 34 -154q0 -164 -128 -282 q88 -84 88 -224q0 -174 -111 -287q-122 -125 -371 -125q-208 0 -404 101l-19 372q138 -88 221 -126q94 -43 188 -43q73 0 105 30q24 23 24 51q0 32 -31 59q-12 11 -69 35l-212 88q-115 49 -171 116q-65 76 -65 196zM323 639q0 -59 85 -96l176 -76q57 41 57 89q0 35 -26 63 q-19 21 -79 48l-162 72q-51 -50 -51 -100z" />
<glyph unicode="&#xa8;" horiz-adv-x="1365" vert-adv-y="2458" d="M203 1438q0 72 50 121q52 50 125 50q71 0 121 -49q50 -50 50 -122q0 -73 -52 -125q-50 -50 -120 -50q-96 0 -148 83q-26 42 -26 92zM817 1438q0 72 50 121q52 50 125 50q71 0 121 -49q50 -50 50 -122q0 -73 -52 -125q-50 -50 -121 -50q-95 0 -147 83q-26 42 -26 92z" />
<glyph unicode="&#xa9;" horiz-adv-x="1100" vert-adv-y="2458" d="M41 1060q0 227 151 369q151 140 365 140q204 0 352 -140q151 -145 151 -368t-151 -368q-147 -140 -359 -140q-211 0 -358 140q-151 145 -151 367zM194 1061q0 -154 105 -254q101 -97 247 -97t247 97q105 100 105 253q0 157 -105 255q-104 97 -251 97q-141 0 -243 -97 q-105 -100 -105 -254zM264 1057q0 130 89 214q83 79 203 79q83 0 167 -44l-18 -161q-81 56 -137 56q-51 0 -86 -38q-38 -42 -38 -101q0 -68 40 -109q40 -40 99 -40q46 0 88 26q42 27 57 35l-18 -168q-72 -41 -157 -41q-104 0 -184 65q-105 86 -105 227z" />
<glyph unicode="&#xaa;" vert-adv-y="2458" d="M205 1121q0 171 111 281q106 105 271 105q65 0 148 -21l223 20v-498q0 -152 13 -235l-244 -20l-16 54q-90 -55 -183 -55q-123 0 -213 89q-110 109 -110 280zM479 1122q0 -81 42 -121q34 -34 87 -34q43 0 92 35v271q-37 19 -73 19q-58 0 -99 -40q-49 -48 -49 -130z" />
<glyph unicode="&#xab;" horiz-adv-x="1004" vert-adv-y="2458" d="M41 682l242 422l256 -148l-160 -274l160 -274l-256 -147zM466 682l242 422l255 -148l-160 -274l160 -274l-255 -147z" />
<glyph unicode="&#xac;" horiz-adv-x="1475" vert-adv-y="2458" d="M55 573v328h1365v-601h-328v273h-1037z" />
<glyph unicode="&#xad;" horiz-adv-x="423" vert-adv-y="2458" d="M0 573v328h423v-328h-423z" />
<glyph unicode="&#xae;" horiz-adv-x="1100" vert-adv-y="2458" d="M41 1059q0 228 151 370q151 140 364 140q205 0 352 -140q151 -145 151 -369q0 -222 -151 -368q-146 -140 -358 -140t-358 140q-151 146 -151 367zM198 1060q0 -154 105 -254q101 -97 244 -97q122 0 224 71l-124 -1l-119 213v-213h-169v551h180q105 0 163 -35 q72 -45 72 -135q0 -87 -90 -139l126 -203q34 43 50 73q41 74 41 168q0 155 -104 256q-102 97 -248 97q-145 0 -247 -98q-104 -100 -104 -254zM528 1084l21 1q60 3 60 60q0 53 -60 53h-21v-114z" />
<glyph unicode="&#xaf;" horiz-adv-x="1161" vert-adv-y="2458" d="M-20 1587v273h1201v-273h-1201z" />
<glyph unicode="&#xb0;" horiz-adv-x="674" vert-adv-y="2458" d="M40 1199q0 128 99 218q83 77 203 77q126 0 216 -98q76 -85 76 -199q0 -132 -98 -220q-86 -77 -199 -77q-131 0 -221 98q-76 85 -76 201zM228 1198q0 -47 35 -78q30 -27 71 -27q46 0 78 35q27 30 27 71q0 46 -35 78q-30 27 -72 27q-45 0 -77 -35q-27 -30 -27 -71z" />
<glyph unicode="&#xb1;" vert-adv-y="2458" d="M130 137v279h942v-279h-942zM130 710v328h307v307h328v-307h307v-328h-307v-239h-328v239h-307z" />
<glyph unicode="&#xb2;" horiz-adv-x="801" vert-adv-y="2458" d="M-9 484l411 517q69 87 69 144q0 40 -25 65q-24 24 -62 24q-55 0 -103 -54q-14 -16 -50 -71l-212 124q62 106 128 161q102 86 249 86t243 -82q109 -93 109 -239q0 -101 -60 -190q-27 -39 -126 -160l-69 -84h276l-41 -241h-737z" />
<glyph unicode="&#xb3;" horiz-adv-x="801" vert-adv-y="2458" d="M18 589l141 203q66 -45 94 -59q65 -33 119 -33q52 0 82 29q29 27 29 72q0 71 -74 95q-30 10 -126 15v145q80 2 112 12q68 20 68 87q0 36 -23 59q-28 29 -76 29q-80 0 -173 -86l-141 173q168 150 357 150q140 0 234 -79q95 -79 95 -200q0 -117 -111 -201q131 -81 131 -235 q0 -131 -96 -217q-104 -94 -272 -94q-134 0 -249 57q-49 25 -121 78z" />
<glyph unicode="&#xb4;" horiz-adv-x="1365" vert-adv-y="2458" d="M375 1499l601 220l96 -264l-601 -220z" />
<glyph unicode="&#xb5;" horiz-adv-x="1331" vert-adv-y="2458" d="M34 -390l268 1521l394 33l-117 -664q-5 -28 -5 -56q0 -121 118 -121q86 0 149 53q80 68 106 213l96 542l391 33l-205 -1164l-364 -33l39 218q-93 -88 -144 -122q-89 -58 -172 -79q-41 -11 -128 -17l-32 -325z" />
<glyph unicode="&#xb6;" horiz-adv-x="1151" vert-adv-y="2458" d="M41 1024q0 158 87 268q84 107 230 140q82 18 251 18h502l-34 -369h-43v-1456l-287 -15v1471h-82v-1476l-273 -15v1024q-119 20 -201 84q-150 118 -150 326z" />
<glyph unicode="&#xb7;" horiz-adv-x="682" vert-adv-y="2458" d="M151 750q0 80 56 135q57 56 137 56q76 0 132 -56t56 -135q0 -78 -56 -134t-134 -56q-79 0 -135 56t-56 134z" />
<glyph unicode="&#xb8;" horiz-adv-x="1365" vert-adv-y="2458" d="M449 -465l20 198q93 -67 157 -67q47 0 72 25q16 17 16 38q0 64 -128 73l23 155l69 -2q67 -17 107 -45q110 -75 110 -199q0 -95 -70 -162q-71 -70 -189 -70q-92 0 -187 56z" />
<glyph unicode="&#xb9;" horiz-adv-x="801" vert-adv-y="2458" d="M179 1230l32 220h392v-967h-273v747h-151z" />
<glyph unicode="&#xba;" vert-adv-y="2458" d="M220 1130q0 105 56 198q52 87 146 135q84 43 190 43q165 0 275 -111q108 -109 108 -266q0 -156 -109 -266q-110 -111 -280 -111q-133 0 -234 72q-96 69 -133 185q-19 61 -19 121zM483 1125q0 -83 46 -128q32 -31 78 -31q43 0 75 31q48 45 48 127q0 85 -48 130 q-32 30 -77 30q-44 0 -76 -31q-46 -44 -46 -128z" />
<glyph unicode="&#xbb;" horiz-adv-x="1004" vert-adv-y="2458" d="M41 408l160 274l-160 274l255 148l243 -422l-243 -421zM465 408l160 274l-160 274l256 148l242 -422l-242 -421z" />
<glyph unicode="&#xbc;" horiz-adv-x="2132" vert-adv-y="2458" d="M179 1230l32 220h392v-967h-273v747h-151zM555 0l759 1450h264l-759 -1450h-264zM1322 180l497 787h253v-573h70l-18 -214h-50v-180h-264v180h-488zM1675 371h148v248z" />
<glyph unicode="&#xbd;" horiz-adv-x="2132" vert-adv-y="2458" d="M179 1230l32 220h392v-967h-273v747h-151zM555 0l759 1450h264l-759 -1450h-264zM1323 0l410 517q70 88 70 144q0 40 -25 65q-24 24 -62 24q-55 0 -103 -54q-15 -17 -50 -71l-212 124q61 106 127 161q103 86 250 86q146 0 243 -82q109 -93 109 -239q0 -101 -60 -190 q-27 -39 -126 -160l-69 -84h276l-41 -241h-737z" />
<glyph unicode="&#xbe;" horiz-adv-x="2132" vert-adv-y="2458" d="M18 589l141 203q66 -45 94 -59q65 -33 119 -33q52 0 82 29q29 27 29 72q0 71 -74 95q-30 10 -126 15v145q80 2 112 12q68 20 68 87q0 36 -23 59q-28 29 -76 29q-80 0 -173 -86l-141 173q168 150 357 150q140 0 234 -79q95 -79 95 -200q0 -117 -111 -201q131 -81 131 -235 q0 -131 -96 -217q-104 -94 -272 -94q-134 0 -249 57q-49 25 -121 78zM555 0l759 1450h263l-759 -1450h-263zM1321 180l497 787h254v-573h69l-18 -214h-50v-180h-264v180h-488zM1674 371h149v248z" />
<glyph unicode="&#xbf;" horiz-adv-x="1047" vert-adv-y="2458" d="M55 358q0 285 368 416l6 140l353 55v-367q-145 -33 -215 -72q-102 -55 -102 -138q0 -47 31 -74q35 -31 98 -31q132 0 262 47l-41 -343q-162 -25 -251 -25q-231 0 -367 104q-142 109 -142 288zM390 1275q0 90 62 151q64 62 152 62q85 0 148 -62q62 -62 62 -150t-62 -150 t-150 -62t-150 62t-62 149z" />
<glyph unicode="&#xc0;" horiz-adv-x="1507" vert-adv-y="2458" d="M-27 0l789 1502l772 -1502h-453l-73 171h-523l-72 -171h-440zM361 1759l101 277l631 -231l-101 -277zM618 492h257l-128 294z" />
<glyph unicode="&#xc1;" horiz-adv-x="1507" vert-adv-y="2458" d="M-27 0l789 1502l772 -1502h-453l-73 171h-523l-72 -171h-440zM413 1805l631 231l101 -277l-631 -231zM618 492h257l-128 294z" />
<glyph unicode="&#xc2;" horiz-adv-x="1507" vert-adv-y="2458" d="M-27 0l789 1502l772 -1502h-453l-73 171h-523l-72 -171h-440zM341 1784l421 242l422 -242l-147 -256l-275 160l-274 -160zM618 492h257l-128 294z" />
<glyph unicode="&#xc3;" horiz-adv-x="1507" vert-adv-y="2458" d="M-27 0l789 1502l772 -1502h-453l-73 171h-523l-72 -171h-440zM350 1841q65 52 116 71q62 23 137 23q59 0 108 -17l91 -32q58 -20 100 -20q72 0 167 76l108 -284q-71 -60 -123 -81q-65 -25 -142 -25q-59 0 -110 17l-91 32q-59 20 -102 20q-66 0 -157 -67zM618 492h257 l-128 294z" />
<glyph unicode="&#xc4;" horiz-adv-x="1507" vert-adv-y="2458" d="M-27 0l789 1502l772 -1502h-453l-73 171h-523l-72 -171h-440zM248 1720q0 76 53 127q54 53 131 53q74 0 127 -52t53 -128q0 -77 -54 -131q-54 -53 -127 -53q-101 0 -156 88q-27 43 -27 96zM618 492h257l-128 294zM921 1720q0 76 53 127q54 53 132 53q73 0 126 -52 t53 -128q0 -77 -55 -131q-53 -53 -126 -53q-101 0 -156 88q-27 44 -27 96z" />
<glyph unicode="&#xc5;" horiz-adv-x="1525" vert-adv-y="2458" d="M-18 0l742 1411q-84 20 -132 66q-76 73 -76 184t76 184q73 70 178 70q106 0 179 -70q76 -73 76 -184t-76 -184q-46 -44 -129 -66l723 -1411h-453l-73 171h-523l-72 -171h-440zM627 492h257l-128 294zM675 1661q0 -40 28 -67q27 -26 66 -26q38 0 65 26q28 27 28 67 q0 42 -28 68t-67 26q-37 0 -64 -26q-28 -27 -28 -68z" />
<glyph unicode="&#xc6;" horiz-adv-x="1846" vert-adv-y="2458" d="M-27 0l789 1502l30 -52h952v-369h-763l88 -175h600v-355h-413l92 -182h403v-369h-670l-73 171h-523l-72 -171h-440zM618 492h257l-129 294z" />
<glyph unicode="&#xc7;" horiz-adv-x="1331" vert-adv-y="2458" d="M68 725q0 232 117 420q112 179 308 272q163 77 345 77q220 0 438 -115l-47 -424q-91 75 -155 109q-107 55 -215 55q-155 0 -253 -104q-101 -107 -101 -288q0 -184 108 -290q107 -106 275 -106q195 0 402 174l-48 -444q-151 -87 -395 -108q71 -19 113 -48 q115 -78 115 -209q0 -99 -73 -170q-75 -73 -199 -73q-97 0 -196 59l22 208q96 -70 164 -70q50 0 75 26q17 18 17 39q0 68 -134 78l24 162q-187 17 -340 108q-158 93 -253 248q-114 184 -114 414z" />
<glyph unicode="&#xc8;" horiz-adv-x="1191" vert-adv-y="2458" d="M150 0v1450h938v-369h-528v-175h453v-355h-453v-182h535v-369h-945zM262 1759l101 277l631 -231l-101 -277z" />
<glyph unicode="&#xc9;" horiz-adv-x="1191" vert-adv-y="2458" d="M150 0v1450h938v-369h-528v-175h453v-355h-453v-182h535v-369h-945zM300 1805l631 231l101 -277l-631 -231z" />
<glyph unicode="&#xca;" horiz-adv-x="1191" vert-adv-y="2458" d="M150 0v1450h938v-369h-528v-175h453v-355h-453v-182h535v-369h-945zM180 1784l421 242l422 -242l-147 -256l-275 160l-274 -160z" />
<glyph unicode="&#xcb;" horiz-adv-x="1191" vert-adv-y="2458" d="M103 1720q0 76 53 127q54 53 131 53q74 0 127 -52t53 -128q0 -77 -54 -131q-54 -53 -127 -53q-101 0 -156 88q-27 43 -27 96zM150 0v1450h938v-369h-528v-175h453v-355h-453v-182h535v-369h-945zM776 1720q0 76 53 127q54 53 132 53q73 0 126 -52t53 -128q0 -77 -55 -131 q-53 -53 -126 -53q-101 0 -156 88q-27 44 -27 96z" />
<glyph unicode="&#xcc;" horiz-adv-x="724" vert-adv-y="2458" d="M8 1759l101 277l631 -231l-101 -277zM150 0v1450h423v-1450h-423z" />
<glyph unicode="&#xcd;" horiz-adv-x="724" vert-adv-y="2458" d="M35 1805l631 231l101 -277l-631 -231zM150 0v1450h423v-1450h-423z" />
<glyph unicode="&#xce;" horiz-adv-x="724" vert-adv-y="2458" d="M-59 1784l421 242l422 -242l-147 -256l-275 160l-274 -160zM150 0v1450h423v-1450h-423z" />
<glyph unicode="&#xcf;" horiz-adv-x="724" vert-adv-y="2458" d="M41 1683q0 60 42 102q44 42 105 42q60 0 102 -42q42 -41 42 -102t-44 -105q-42 -42 -101 -42q-81 0 -124 70q-22 36 -22 77zM150 0v1450h423v-1450h-423zM392 1683q0 60 42 102q44 42 105 42q60 0 102 -42q42 -41 42 -102t-44 -105q-42 -42 -101 -42q-81 0 -124 70 q-22 35 -22 77z" />
<glyph unicode="&#xd0;" horiz-adv-x="1516" vert-adv-y="2458" d="M10 573v328h140v549h423q405 0 627 -183q116 -96 180 -241q61 -142 61 -301q0 -216 -108 -390q-208 -335 -760 -335h-423v573h-140zM573 368h52q176 0 273 89q106 97 106 268q0 187 -124 283q-95 73 -255 73h-52v-180h147v-328h-147v-205z" />
<glyph unicode="&#xd1;" horiz-adv-x="1570" vert-adv-y="2458" d="M150 0v1502l860 -655v603h410v-1505l-860 676v-621h-410zM363 1841q65 52 116 71q62 23 137 23q59 0 108 -17l91 -32q58 -20 100 -20q72 0 167 76l108 -284q-71 -60 -123 -81q-65 -25 -142 -25q-59 0 -110 17l-91 32q-59 20 -102 20q-66 0 -157 -67z" />
<glyph unicode="&#xd2;" horiz-adv-x="1693" vert-adv-y="2458" d="M75 723q0 230 110 411q113 187 321 286q158 74 350 74q204 0 385 -103q198 -112 297 -313q80 -160 80 -354q0 -337 -229 -557q-111 -106 -259 -162q-136 -50 -284 -50q-214 0 -394 102q-197 112 -297 314q-80 160 -80 352zM465 1759l101 277l631 -231l-101 -277zM512 726 q0 -183 111 -298q94 -96 224 -96q129 0 223 96q111 115 111 296q0 183 -111 298q-93 97 -227 97q-130 0 -225 -102q-106 -114 -106 -291z" />
<glyph unicode="&#xd3;" horiz-adv-x="1693" vert-adv-y="2458" d="M75 723q0 230 110 411q113 187 321 286q158 74 350 74q204 0 385 -103q198 -112 297 -313q80 -160 80 -354q0 -337 -229 -557q-111 -106 -259 -162q-136 -50 -284 -50q-214 0 -394 102q-197 112 -297 314q-80 160 -80 352zM512 726q0 -183 111 -298q94 -96 224 -96 q129 0 223 96q111 115 111 296q0 183 -111 298q-93 97 -227 97q-130 0 -225 -102q-106 -114 -106 -291zM527 1805l631 231l101 -277l-631 -231z" />
<glyph unicode="&#xd4;" horiz-adv-x="1693" vert-adv-y="2458" d="M75 723q0 230 110 411q113 187 321 286q158 74 350 74q204 0 385 -103q198 -112 297 -313q80 -160 80 -354q0 -337 -229 -557q-111 -106 -259 -162q-136 -50 -284 -50q-214 0 -394 102q-197 112 -297 314q-80 160 -80 352zM432 1784l421 242l422 -242l-147 -256l-275 160 l-274 -160zM512 726q0 -183 111 -298q94 -96 224 -96q129 0 223 96q111 115 111 296q0 183 -111 298q-93 97 -227 97q-130 0 -225 -102q-106 -114 -106 -291z" />
<glyph unicode="&#xd5;" horiz-adv-x="1693" vert-adv-y="2458" d="M75 723q0 230 110 411q113 187 321 286q158 74 350 74q204 0 385 -103q198 -112 297 -313q80 -160 80 -354q0 -337 -229 -557q-111 -106 -259 -162q-136 -50 -284 -50q-214 0 -394 102q-197 112 -297 314q-80 160 -80 352zM425 1841q65 52 116 71q62 23 137 23 q59 0 108 -17l91 -32q58 -20 100 -20q72 0 167 76l108 -284q-71 -60 -123 -81q-65 -25 -142 -25q-59 0 -110 17l-91 32q-59 20 -102 20q-66 0 -157 -67zM512 726q0 -183 111 -298q94 -96 224 -96q129 0 223 96q111 115 111 296q0 183 -111 298q-93 97 -227 97 q-130 0 -225 -102q-106 -114 -106 -291z" />
<glyph unicode="&#xd6;" horiz-adv-x="1665" vert-adv-y="2458" d="M61 723q0 230 110 411q113 187 321 286q158 74 350 74q204 0 385 -103q198 -112 297 -313q80 -160 80 -354q0 -337 -229 -557q-111 -106 -259 -162q-136 -50 -284 -50q-214 0 -394 102q-197 112 -297 314q-80 160 -80 352zM305 1720q0 76 53 127q54 53 131 53 q74 0 127 -52t53 -128q0 -77 -54 -131q-54 -53 -127 -53q-101 0 -156 88q-27 43 -27 96zM498 726q0 -183 111 -298q94 -96 224 -96q129 0 223 96q111 115 111 296q0 183 -111 298q-93 97 -227 97q-130 0 -225 -102q-106 -114 -106 -291zM978 1720q0 76 53 127q54 53 132 53 q73 0 126 -52t53 -128q0 -77 -55 -131q-53 -53 -126 -53q-101 0 -156 88q-27 44 -27 96z" />
<glyph unicode="&#xd7;" vert-adv-y="2458" d="M133 501l237 236l-237 237l232 231l236 -236l237 237l231 -232l-236 -237l236 -236l-231 -232l-237 237l-236 -237z" />
<glyph unicode="&#xd8;" horiz-adv-x="1692" vert-adv-y="2458" d="M14 -55l238 277q-178 211 -178 504q0 336 229 556q111 107 259 162q136 51 283 51q219 0 405 -108l101 118h325l-237 -277q178 -213 178 -504q0 -337 -229 -556q-111 -107 -259 -163q-135 -50 -283 -50q-219 0 -405 109l-102 -119h-325zM504 728q0 -85 32 -174l458 534 q-74 38 -148 38q-137 0 -233 -104q-109 -116 -109 -294zM697 363q75 -38 148 -38q133 0 228 98q114 117 114 304q0 87 -31 171z" />
<glyph unicode="&#xd9;" horiz-adv-x="1529" vert-adv-y="2458" d="M150 623v827h423v-820q0 -145 46 -221q25 -42 70 -67q43 -24 92 -24q98 0 152 82q50 78 50 225v825h396v-825q0 -297 -145 -471q-165 -198 -471 -198q-285 0 -452 177q-161 172 -161 490zM410 1759l101 277l631 -231l-101 -277z" />
<glyph unicode="&#xda;" horiz-adv-x="1529" vert-adv-y="2458" d="M150 623v827h423v-820q0 -145 46 -221q25 -42 70 -67q43 -24 92 -24q98 0 152 82q50 78 50 225v825h396v-825q0 -297 -145 -471q-165 -198 -471 -198q-285 0 -452 177q-161 172 -161 490zM419 1805l631 231l101 -277l-631 -231z" />
<glyph unicode="&#xdb;" horiz-adv-x="1529" vert-adv-y="2458" d="M150 623v827h423v-820q0 -145 46 -221q25 -42 70 -67q43 -24 92 -24q98 0 152 82q50 78 50 225v825h396v-825q0 -297 -145 -471q-165 -198 -471 -198q-285 0 -452 177q-161 172 -161 490zM363 1770l421 242l422 -242l-147 -256l-275 160l-274 -160z" />
<glyph unicode="&#xdc;" horiz-adv-x="1529" vert-adv-y="2458" d="M150 623v827h423v-820q0 -145 46 -221q25 -42 70 -67q43 -24 92 -24q98 0 152 82q50 78 50 225v825h396v-825q0 -297 -145 -471q-165 -198 -471 -198q-285 0 -452 177q-161 172 -161 490zM265 1720q0 76 53 127q54 53 131 53q74 0 127 -52t53 -128q0 -77 -54 -131 q-54 -53 -127 -53q-101 0 -156 88q-27 43 -27 96zM938 1720q0 76 53 127q54 53 132 53q73 0 126 -52t53 -128q0 -77 -55 -131q-53 -53 -126 -53q-101 0 -156 88q-27 44 -27 96z" />
<glyph unicode="&#xdd;" horiz-adv-x="1402" vert-adv-y="2458" d="M-20 1450h468l265 -392l265 392h445l-524 -756v-694h-423v681zM348 1805l631 231l101 -277l-631 -231z" />
<glyph unicode="&#xde;" horiz-adv-x="1236" vert-adv-y="2458" d="M150 0v1450h410v-205h33q256 0 415 -104q98 -63 150 -171q51 -104 51 -229q0 -241 -178 -378q-164 -124 -441 -124h-30v-239h-410zM560 560l53 1q175 5 175 179q0 164 -175 164h-53v-344z" />
<glyph unicode="&#xdf;" horiz-adv-x="1389" vert-adv-y="2458" d="M123 -390v1134q0 380 66 525q64 142 200 220q126 72 305 72q251 0 391 -140q55 -56 87 -131q29 -69 29 -133q0 -98 -58 -178q-41 -57 -98 -87q-26 -14 -65 -31q129 -52 187 -109t95 -136q45 -99 45 -200q0 -137 -78 -259q-125 -196 -361 -196q-95 0 -216 44l-32 350 q85 -53 147 -53q55 0 94 37q49 47 49 130q0 104 -74 176q-70 69 -181 69h-10v251q90 3 135 35q62 44 62 117q0 61 -42 104q-43 45 -116 45q-93 0 -133 -70q-40 -69 -40 -267v-1287z" />
<glyph unicode="&#xe0;" horiz-adv-x="1358" vert-adv-y="2458" d="M61 551q0 272 177 447q168 166 429 166q105 0 236 -33l332 33v-791q0 -243 20 -373l-364 -32l-27 86q-142 -87 -290 -87q-196 0 -338 141q-175 173 -175 443zM341 1455l96 264l601 -220l-96 -264zM457 551q0 -141 74 -213q60 -59 152 -59q78 0 164 62v477q-66 34 -129 34 q-102 0 -174 -70q-87 -84 -87 -231z" />
<glyph unicode="&#xe1;" horiz-adv-x="1358" vert-adv-y="2458" d="M61 551q0 272 177 447q168 166 429 166q105 0 236 -33l332 33v-791q0 -243 20 -373l-364 -32l-27 86q-142 -87 -290 -87q-196 0 -338 141q-175 173 -175 443zM347 1499l601 220l96 -264l-601 -220zM457 551q0 -141 74 -213q60 -59 152 -59q78 0 164 62v477 q-66 34 -129 34q-102 0 -174 -70q-87 -84 -87 -231z" />
<glyph unicode="&#xe2;" horiz-adv-x="1358" vert-adv-y="2458" d="M61 551q0 272 177 447q168 166 429 166q105 0 236 -33l332 33v-791q0 -243 20 -373l-364 -32l-27 86q-142 -87 -290 -87q-196 0 -338 141q-175 173 -175 443zM275 1479l401 230l402 -230l-141 -244l-261 153l-261 -153zM457 551q0 -141 74 -213q60 -59 152 -59 q78 0 164 62v477q-66 34 -129 34q-102 0 -174 -70q-87 -84 -87 -231z" />
<glyph unicode="&#xe3;" horiz-adv-x="1358" vert-adv-y="2458" d="M61 551q0 272 177 447q168 166 429 166q105 0 236 -33l332 33v-791q0 -243 20 -373l-364 -32l-27 86q-142 -87 -290 -87q-196 0 -338 141q-175 173 -175 443zM295 1620q65 52 116 71q62 23 139 23q59 0 106 -17l91 -31q57 -20 99 -20q73 0 168 75l108 -284 q-71 -59 -123 -80q-64 -25 -143 -25q-59 0 -109 17l-91 31q-56 20 -101 20q-67 0 -158 -66zM457 551q0 -141 74 -213q60 -59 152 -59q78 0 164 62v477q-66 34 -129 34q-102 0 -174 -70q-87 -84 -87 -231z" />
<glyph unicode="&#xe4;" horiz-adv-x="1358" vert-adv-y="2458" d="M61 551q0 272 177 447q168 166 429 166q105 0 236 -33l332 33v-791q0 -243 20 -373l-364 -32l-27 86q-142 -87 -290 -87q-196 0 -338 141q-175 173 -175 443zM249 1438q0 72 50 121q52 50 125 50q71 0 121 -49q50 -50 50 -122q0 -73 -52 -125q-50 -50 -120 -50 q-96 0 -148 83q-26 42 -26 92zM457 551q0 -141 74 -213q60 -59 152 -59q78 0 164 62v477q-66 34 -129 34q-102 0 -174 -70q-87 -84 -87 -231zM863 1438q0 72 50 121q52 50 125 50q71 0 121 -49q50 -50 50 -122q0 -73 -52 -125q-50 -50 -121 -50q-95 0 -147 83q-26 42 -26 92 z" />
<glyph unicode="&#xe5;" horiz-adv-x="1358" vert-adv-y="2458" d="M61 551q0 272 177 447q168 166 429 166q105 0 236 -33l332 33v-791q0 -243 20 -373l-364 -32l-27 86q-142 -87 -290 -87q-196 0 -338 141q-175 173 -175 443zM457 551q0 -141 74 -213q60 -59 152 -59q78 0 164 62v477q-66 34 -129 34q-102 0 -174 -70q-87 -84 -87 -231z M466 1536q0 107 72 174t173 67q98 0 168 -67q72 -69 72 -173q0 -105 -72 -174q-70 -67 -171 -67q-100 0 -170 67q-72 69 -72 173zM618 1535q0 -39 26 -64t62 -25q37 0 63 25t26 64q0 40 -26 64q-27 25 -64 25q-35 0 -61 -25t-26 -64z" />
<glyph unicode="&#xe6;" horiz-adv-x="2063" vert-adv-y="2458" d="M61 551q0 272 177 447q168 166 423 166q100 0 229 -33l332 33v-47q130 47 240 47q187 0 329 -99q138 -95 187 -267q24 -85 24 -175q0 -28 -3 -68l-768 -124q33 -68 89 -104q86 -55 187 -55q117 0 267 64q63 27 175 91l-44 -355q-237 -105 -436 -105q-131 0 -247 72v-39 l-358 -32v86q-142 -87 -290 -87q-196 0 -338 141q-175 173 -175 443zM457 551q0 -141 74 -213q60 -59 152 -59q79 0 164 62v477q-66 34 -129 34q-102 0 -174 -70q-87 -84 -87 -231zM1212 676l453 70q-56 131 -201 131q-137 0 -208 -95q-29 -39 -44 -106z" />
<glyph unicode="&#xe7;" horiz-adv-x="1146" vert-adv-y="2458" d="M61 544q0 253 175 430q189 190 471 190q195 0 356 -98l-43 -353q-74 65 -128 89q-80 37 -163 37q-122 0 -200 -78q-83 -83 -83 -216q0 -122 70 -190q76 -76 199 -76q98 0 204 64q51 30 144 110l-35 -373q-179 -114 -346 -113q71 -14 112 -42q53 -37 83 -94 q26 -51 26 -106q0 -96 -69 -163q-72 -70 -190 -70q-91 0 -186 56l20 198q92 -67 156 -67q48 0 72 25q16 17 16 38q0 64 -127 74l19 152q-172 9 -319 115q-234 167 -234 461z" />
<glyph unicode="&#xe8;" horiz-adv-x="1286" vert-adv-y="2458" d="M61 561q0 248 170 418q185 185 452 185q190 0 331 -99q139 -97 187 -267q24 -86 24 -174q0 -25 -3 -69l-768 -124q33 -69 89 -105q86 -55 187 -55q117 0 267 65q63 27 175 91l-43 -355q-239 -105 -440 -105q-254 0 -425 141q-203 167 -203 453zM296 1455l96 264l601 -220 l-96 -264zM435 676l453 70q-56 131 -202 131q-136 0 -207 -95q-29 -39 -44 -106z" />
<glyph unicode="&#xe9;" horiz-adv-x="1286" vert-adv-y="2458" d="M61 561q0 248 170 418q185 185 452 185q190 0 331 -99q139 -97 187 -267q24 -86 24 -174q0 -25 -3 -69l-768 -124q33 -69 89 -105q86 -55 187 -55q117 0 267 65q63 27 175 91l-43 -355q-239 -105 -440 -105q-254 0 -425 141q-203 167 -203 453zM294 1499l601 220l96 -264 l-601 -220zM435 676l453 70q-56 131 -202 131q-136 0 -207 -95q-29 -39 -44 -106z" />
<glyph unicode="&#xea;" horiz-adv-x="1286" vert-adv-y="2458" d="M61 561q0 248 170 418q185 185 452 185q190 0 331 -99q139 -97 187 -267q24 -86 24 -174q0 -25 -3 -69l-768 -124q33 -69 89 -105q86 -55 187 -55q117 0 267 65q63 27 175 91l-43 -355q-239 -105 -440 -105q-254 0 -425 141q-203 167 -203 453zM239 1479l401 230 l402 -230l-141 -244l-261 153l-261 -153zM435 676l453 70q-56 131 -202 131q-136 0 -207 -95q-29 -39 -44 -106z" />
<glyph unicode="&#xeb;" horiz-adv-x="1286" vert-adv-y="2458" d="M61 561q0 248 170 418q185 185 452 185q190 0 331 -99q139 -97 187 -267q24 -86 24 -174q0 -25 -3 -69l-768 -124q33 -69 89 -105q86 -55 187 -55q117 0 267 65q63 27 175 91l-43 -355q-239 -105 -440 -105q-254 0 -425 141q-203 167 -203 453zM190 1438q0 72 50 121 q52 50 125 50q71 0 121 -49q50 -50 50 -122q0 -73 -52 -125q-50 -50 -120 -50q-96 0 -148 83q-26 42 -26 92zM435 676l453 70q-56 131 -202 131q-136 0 -207 -95q-29 -39 -44 -106zM804 1438q0 72 50 121q52 50 125 50q71 0 121 -49q50 -50 50 -122q0 -73 -52 -125 q-50 -50 -121 -50q-95 0 -147 83q-26 42 -26 92z" />
<glyph unicode="&#xec;" horiz-adv-x="617" vert-adv-y="2458" d="M88 0v1131l393 33v-1164h-393zM94 1455l96 264l601 -220l-96 -264z" />
<glyph unicode="&#xed;" horiz-adv-x="617" vert-adv-y="2458" d="M-105 1499l601 220l96 -264l-601 -220zM88 0v1131l393 33v-1164h-393z" />
<glyph unicode="&#xee;" horiz-adv-x="617" vert-adv-y="2458" d="M-119 1479l401 230l402 -230l-141 -244l-261 153l-261 -153zM88 0v1131l393 33v-1164h-393z" />
<glyph unicode="&#xef;" horiz-adv-x="552" vert-adv-y="2458" d="M-29 1438q0 58 40 97q41 40 100 40q57 0 97 -39q40 -40 40 -98t-42 -100q-40 -40 -96 -40q-77 0 -118 67q-21 34 -21 73zM88 0v1131l393 33v-1164h-393zM305 1438q0 57 41 97t99 40q57 0 97 -39q40 -40 40 -98t-42 -100q-40 -40 -96 -40q-77 0 -118 67q-21 34 -21 73z " />
<glyph unicode="&#xf0;" horiz-adv-x="1353" vert-adv-y="2458" d="M61 567q0 167 88 315q123 205 402 270q-85 105 -294 298l438 27l109 -118l137 126l209 -222l-150 -134q152 -169 204 -254q87 -142 87 -307q0 -172 -90 -319q-85 -140 -234 -215q-133 -67 -294 -67q-211 0 -371 115q-152 110 -211 293q-30 96 -30 192zM457 559 q0 -147 82 -225q56 -55 136 -55q77 0 134 54q84 80 84 225q0 149 -84 227q-58 54 -137 54q-77 0 -133 -54q-82 -79 -82 -226z" />
<glyph unicode="&#xf1;" horiz-adv-x="1351" vert-adv-y="2458" d="M123 0v1131l357 33v-219q76 87 124 123q129 96 289 96q166 0 256 -92q100 -103 100 -306v-766h-385v631q0 177 -146 177q-85 0 -139 -53q-68 -68 -68 -213v-542h-388zM273 1616q65 52 116 71q62 23 139 23q59 0 106 -17l91 -31q57 -20 99 -20q73 0 168 75l108 -284 q-71 -59 -123 -80q-64 -25 -143 -25q-59 0 -109 17l-91 31q-56 20 -101 20q-67 0 -158 -66z" />
<glyph unicode="&#xf2;" horiz-adv-x="1339" vert-adv-y="2458" d="M55 567q0 167 88 315q83 138 233 214q133 68 301 68q178 0 329 -92q138 -84 212 -229q67 -132 67 -277q0 -170 -90 -317q-85 -140 -234 -215q-133 -67 -294 -67q-211 0 -370 115q-153 110 -211 293q-31 97 -31 192zM272 1455l96 264l601 -220l-96 -264zM451 559 q0 -147 82 -225q56 -55 136 -55q77 0 134 54q84 80 84 225q0 149 -84 227q-58 54 -137 54q-77 0 -133 -54q-82 -79 -82 -226z" />
<glyph unicode="&#xf3;" horiz-adv-x="1339" vert-adv-y="2458" d="M55 567q0 167 88 315q83 138 233 214q133 68 301 68q178 0 329 -92q138 -84 212 -229q67 -132 67 -277q0 -170 -90 -317q-85 -140 -234 -215q-133 -67 -294 -67q-211 0 -370 115q-153 110 -211 293q-31 97 -31 192zM361 1499l601 220l96 -264l-601 -220zM451 559 q0 -147 82 -225q56 -55 136 -55q77 0 134 54q84 80 84 225q0 149 -84 227q-58 54 -137 54q-77 0 -133 -54q-82 -79 -82 -226z" />
<glyph unicode="&#xf4;" horiz-adv-x="1339" vert-adv-y="2458" d="M55 567q0 167 88 315q83 138 233 214q133 68 301 68q178 0 329 -92q138 -84 212 -229q67 -132 67 -277q0 -170 -90 -317q-85 -140 -234 -215q-133 -67 -294 -67q-211 0 -370 115q-153 110 -211 293q-31 97 -31 192zM269 1479l401 230l402 -230l-141 -244l-261 153 l-261 -153zM451 559q0 -147 82 -225q56 -55 136 -55q77 0 134 54q84 80 84 225q0 149 -84 227q-58 54 -137 54q-77 0 -133 -54q-82 -79 -82 -226z" />
<glyph unicode="&#xf5;" horiz-adv-x="1339" vert-adv-y="2458" d="M55 567q0 167 88 315q83 138 233 214q133 68 301 68q178 0 329 -92q138 -84 212 -229q67 -132 67 -277q0 -170 -90 -317q-85 -140 -234 -215q-133 -67 -294 -67q-211 0 -370 115q-153 110 -211 293q-31 97 -31 192zM246 1618q65 52 116 71q62 23 139 23q59 0 106 -17 l91 -31q57 -20 99 -20q73 0 168 75l108 -284q-71 -59 -123 -80q-64 -25 -143 -25q-59 0 -109 17l-91 31q-56 20 -101 20q-67 0 -158 -66zM451 559q0 -147 82 -225q56 -55 136 -55q77 0 134 54q84 80 84 225q0 149 -84 227q-58 54 -137 54q-77 0 -133 -54q-82 -79 -82 -226z " />
<glyph unicode="&#xf6;" horiz-adv-x="1339" vert-adv-y="2458" d="M55 567q0 167 88 315q83 138 233 214q133 68 301 68q178 0 329 -92q138 -84 212 -229q67 -132 67 -277q0 -170 -90 -317q-85 -140 -234 -215q-133 -67 -294 -67q-211 0 -370 115q-153 110 -211 293q-31 97 -31 192zM196 1438q0 72 50 121q52 50 125 50q71 0 121 -49 q50 -50 50 -122q0 -73 -52 -125q-50 -50 -120 -50q-96 0 -148 83q-26 42 -26 92zM451 559q0 -147 82 -225q56 -55 136 -55q77 0 134 54q84 80 84 225q0 149 -84 227q-58 54 -137 54q-77 0 -133 -54q-82 -79 -82 -226zM810 1438q0 72 50 121q52 50 125 50q71 0 121 -49 q50 -50 50 -122q0 -73 -52 -125q-50 -50 -121 -50q-95 0 -147 83q-26 42 -26 92z" />
<glyph unicode="&#xf7;" vert-adv-y="2458" d="M130 573v328h942v-328h-942zM393 296q0 89 62 150q64 62 153 62q84 0 147 -62q62 -62 62 -150q0 -87 -62 -150q-63 -62 -150 -62t-150 62q-62 63 -62 150zM393 1176q0 89 62 150q64 62 153 62q84 0 147 -62q62 -62 62 -150t-62 -150q-63 -62 -150 -62t-150 62 q-62 62 -62 150z" />
<glyph unicode="&#xf8;" horiz-adv-x="1352" vert-adv-y="2458" d="M-17 -32l202 222q-123 172 -123 376q0 169 88 315q84 139 233 215q134 68 284 68q171 0 317 -91l82 91h274l-185 -213q137 -172 137 -386q0 -168 -90 -315q-86 -140 -234 -215q-134 -67 -296 -67q-138 0 -249 48q-28 11 -81 40l-88 -88h-271zM457 580q0 -33 6 -84 l304 334q-36 8 -73 8q-100 0 -155 -54q-82 -82 -82 -204zM575 308q47 -28 98 -28q80 0 137 54q84 80 84 228q0 47 -11 87z" />
<glyph unicode="&#xf9;" horiz-adv-x="1351" vert-adv-y="2458" d="M102 365v766l388 33v-664q0 -177 145 -177q87 0 139 53q69 69 69 213v542l385 33v-1164l-358 -32v218q-74 -87 -122 -123q-128 -96 -287 -96q-166 0 -257 92q-102 102 -102 306zM215 1455l96 264l601 -220l-96 -264z" />
<glyph unicode="&#xfa;" horiz-adv-x="1351" vert-adv-y="2458" d="M102 365v766l388 33v-664q0 -177 145 -177q87 0 139 53q69 69 69 213v542l385 33v-1164l-358 -32v218q-74 -87 -122 -123q-128 -96 -287 -96q-166 0 -257 92q-102 102 -102 306zM425 1499l601 220l96 -264l-601 -220z" />
<glyph unicode="&#xfb;" horiz-adv-x="1351" vert-adv-y="2458" d="M102 365v766l388 33v-664q0 -177 145 -177q87 0 139 53q69 69 69 213v542l385 33v-1164l-358 -32v218q-74 -87 -122 -123q-128 -96 -287 -96q-166 0 -257 92q-102 102 -102 306zM268 1479l401 230l402 -230l-141 -244l-261 153l-261 -153z" />
<glyph unicode="&#xfc;" horiz-adv-x="1351" vert-adv-y="2458" d="M102 365v766l388 33v-664q0 -177 145 -177q87 0 139 53q69 69 69 213v542l385 33v-1164l-358 -32v218q-74 -87 -122 -123q-128 -96 -287 -96q-166 0 -257 92q-102 102 -102 306zM191 1438q0 72 50 121q52 50 125 50q71 0 121 -49q50 -50 50 -122q0 -73 -52 -125 q-50 -50 -120 -50q-96 0 -148 83q-26 42 -26 92zM805 1438q0 72 50 121q52 50 125 50q71 0 121 -49q50 -50 50 -122q0 -73 -52 -125q-50 -50 -121 -50q-95 0 -147 83q-26 42 -26 92z" />
<glyph unicode="&#xfd;" horiz-adv-x="1172" vert-adv-y="2458" d="M-14 1131h420l197 -669l211 669h371l-551 -1489l-392 -32l171 390zM291 1499l601 220l96 -264l-601 -220z" />
<glyph unicode="&#xfe;" horiz-adv-x="1376" vert-adv-y="2458" d="M135 -390v1840l393 32v-397q118 79 274 79q195 0 337 -141q175 -173 175 -443q0 -272 -177 -447q-168 -166 -406 -166q-100 0 -203 40v-365zM528 313q66 -34 129 -34q102 0 174 70q87 84 87 230q0 143 -73 214q-61 59 -153 59q-78 0 -164 -62v-477z" />
<glyph unicode="&#xff;" horiz-adv-x="1172" vert-adv-y="2458" d="M-14 1131h420l197 -669l211 669h371l-551 -1489l-392 -32l171 390zM133 1438q0 72 50 121q52 50 125 50q71 0 121 -49q50 -50 50 -122q0 -73 -52 -125q-50 -50 -120 -50q-96 0 -148 83q-26 42 -26 92zM747 1438q0 72 50 121q52 50 125 50q71 0 121 -49q50 -50 50 -122 q0 -73 -52 -125q-50 -50 -121 -50q-95 0 -147 83q-26 42 -26 92z" />
<glyph unicode="&#x152;" horiz-adv-x="2161" vert-adv-y="2458" d="M74 725q0 337 229 557q222 213 544 213q132 0 264 -45h948v-369h-537q26 -50 32 -66q11 -24 31 -109h398v-355h-398q-24 -97 -63 -182h543v-369h-953q-128 -45 -263 -45q-324 0 -546 213q-229 220 -229 557zM512 726q0 -183 111 -298q94 -96 224 -96q129 0 223 96 q111 115 111 296q0 183 -111 298q-93 97 -227 97q-130 0 -225 -102q-106 -114 -106 -291z" />
<glyph unicode="&#x153;" horiz-adv-x="2098" vert-adv-y="2458" d="M55 567q0 168 88 315q85 140 233 215q133 67 298 67q194 0 327 -93q35 -24 82 -70q164 163 410 163q192 0 333 -99q139 -96 187 -267q24 -85 24 -176q0 -23 -3 -67l-768 -124q33 -68 89 -104q86 -55 187 -55q117 0 267 64q63 27 175 91l-43 -355q-238 -105 -439 -105 q-252 0 -427 142q-182 -142 -408 -142q-211 0 -371 115q-153 110 -211 293q-30 96 -30 192zM451 559q0 -147 82 -225q56 -55 136 -55q77 0 134 54q84 81 84 225q0 149 -84 227q-58 54 -136 54t-134 -54q-82 -79 -82 -226zM1247 676l454 70q-57 131 -202 131q-137 0 -208 -95 q-29 -39 -44 -106z" />
<glyph unicode="&#x178;" horiz-adv-x="1402" vert-adv-y="2458" d="M-20 1450h468l265 -392l265 392h445l-524 -756v-694h-423v681zM197 1720q0 76 53 127q54 53 131 53q74 0 127 -52t53 -128q0 -77 -54 -131q-54 -53 -127 -53q-101 0 -156 88q-27 43 -27 96zM870 1720q0 76 53 127q54 53 132 53q73 0 126 -52t53 -128q0 -77 -55 -131 q-53 -53 -126 -53q-101 0 -156 88q-27 44 -27 96z" />
<glyph unicode="&#x2c6;" horiz-adv-x="1365" vert-adv-y="2458" d="M281 1479l401 230l402 -230l-141 -244l-261 153l-261 -153z" />
<glyph unicode="&#x2dc;" horiz-adv-x="1365" vert-adv-y="2458" d="M269 1553q65 52 116 71q62 23 139 23q59 0 106 -17l91 -31q57 -20 99 -20q73 0 168 75l108 -284q-71 -59 -123 -80q-64 -25 -143 -25q-59 0 -109 17l-91 31q-56 20 -101 20q-67 0 -158 -66z" />
<glyph unicode="&#x2000;" horiz-adv-x="1018" vert-adv-y="0" />
<glyph unicode="&#x2001;" horiz-adv-x="2036" vert-adv-y="0" />
<glyph unicode="&#x2002;" horiz-adv-x="1018" vert-adv-y="0" />
<glyph unicode="&#x2003;" horiz-adv-x="2036" vert-adv-y="0" />
<glyph unicode="&#x2004;" horiz-adv-x="678" vert-adv-y="0" />
<glyph unicode="&#x2005;" horiz-adv-x="509" vert-adv-y="0" />
<glyph unicode="&#x2006;" horiz-adv-x="339" vert-adv-y="0" />
<glyph unicode="&#x2007;" horiz-adv-x="339" vert-adv-y="0" />
<glyph unicode="&#x2008;" horiz-adv-x="254" vert-adv-y="0" />
<glyph unicode="&#x2009;" horiz-adv-x="407" vert-adv-y="0" />
<glyph unicode="&#x200a;" horiz-adv-x="113" vert-adv-y="0" />
<glyph unicode="&#x2010;" horiz-adv-x="423" vert-adv-y="2458" d="M0 573v328h423v-328h-423z" />
<glyph unicode="&#x2011;" horiz-adv-x="423" vert-adv-y="2458" d="M0 573v328h423v-328h-423z" />
<glyph unicode="&#x2012;" horiz-adv-x="423" vert-adv-y="2458" d="M0 573v328h423v-328h-423z" />
<glyph unicode="&#x2013;" vert-adv-y="2458" d="M130 573v328h942v-328h-942z" />
<glyph unicode="&#x2014;" horiz-adv-x="1720" vert-adv-y="2458" d="M41 573v328h1638v-328h-1638z" />
<glyph unicode="&#x2018;" horiz-adv-x="650" vert-adv-y="2458" d="M25 874l243 576h301l-189 -576h-355z" />
<glyph unicode="&#x2019;" horiz-adv-x="677" vert-adv-y="2458" d="M82 874l189 576h355l-244 -576h-300z" />
<glyph unicode="&#x201a;" horiz-adv-x="669" vert-adv-y="2458" d="M41 -243l189 612h382l-243 -612h-328z" />
<glyph unicode="&#x201c;" horiz-adv-x="1081" vert-adv-y="2458" d="M25 874l243 576h301l-190 -576h-354zM456 874l243 576h300l-189 -576h-354z" />
<glyph unicode="&#x201d;" horiz-adv-x="1081" vert-adv-y="2458" d="M82 874l189 576h355l-244 -576h-300zM513 874l189 576h354l-243 -576h-300z" />
<glyph unicode="&#x201e;" horiz-adv-x="1081" vert-adv-y="2458" d="M82 -208l189 577h355l-244 -577h-300zM513 -208l189 577h354l-243 -577h-300z" />
<glyph unicode="&#x2022;" horiz-adv-x="1090" vert-adv-y="2458" d="M82 734q0 208 137 336t331 128q186 0 320 -128q137 -131 137 -335q0 -202 -137 -334q-133 -128 -326 -128q-192 0 -325 128q-137 132 -137 333z" />
<glyph unicode="&#x2026;" horiz-adv-x="1761" vert-adv-y="2458" d="M82 184q0 89 62 150q64 62 153 62q84 0 147 -62q62 -62 62 -150t-62 -150t-150 -62q-87 0 -150 62q-62 62 -62 150zM669 184q0 89 62 150q64 62 153 62q84 0 147 -62q62 -62 62 -150q0 -87 -62 -150q-63 -62 -150 -62t-150 62q-62 62 -62 150zM1256 184q0 89 62 150 q64 62 153 62q84 0 147 -62q62 -62 62 -150t-62 -150t-150 -62t-150 62t-62 150z" />
<glyph unicode="&#x202f;" horiz-adv-x="407" vert-adv-y="0" />
<glyph unicode="&#x2039;" horiz-adv-x="580" vert-adv-y="2458" d="M41 682l242 422l256 -148l-160 -274l160 -274l-256 -147z" />
<glyph unicode="&#x203a;" horiz-adv-x="580" vert-adv-y="2458" d="M41 408l160 274l-160 274l255 148l243 -422l-243 -421z" />
<glyph unicode="&#x205f;" horiz-adv-x="509" vert-adv-y="0" />
<glyph unicode="&#x20ac;" horiz-adv-x="1307" vert-adv-y="2458" d="M-41 598l34 241h104q26 205 139 356q107 143 274 222q163 77 347 77q146 0 311 -57l-105 -358q-106 40 -191 40q-120 0 -212 -65q-85 -60 -111 -153q-6 -21 -12 -62h460l-69 -241h-391q13 -68 34 -102q59 -93 180 -137q75 -28 154 -28q61 0 113 14t137 54l-50 -402 q-126 -42 -251 -42q-223 0 -402 107q-209 125 -305 339q-38 86 -53 197h-135z" />
<glyph unicode="&#x2122;" horiz-adv-x="1661" vert-adv-y="2458" d="M8 1215v235h727v-235h-223v-635h-268v635h-236zM603 580l239 901l286 -493l286 493l238 -901h-262l-76 305l-194 -345l-195 345l-69 -305h-253z" />
<glyph unicode="&#x25fc;" horiz-adv-x="1130" vert-adv-y="2260" d="M0 0v1130h1130v-1130h-1130z" />
<glyph unicode="&#xfb01;" horiz-adv-x="1463" vert-adv-y="2458" d="M41 806v325h162v92q0 154 98 269q67 80 194 119q93 28 206 28q62 0 165 -7l-41 -340q-62 16 -104 16q-65 0 -97 -33q-25 -25 -25 -60v-84h266v-325h-266v-806h-396v806h-162zM931 1465q0 90 62 150q64 62 155 62q87 0 149 -61t62 -151t-64 -154q-63 -62 -150 -62 q-118 0 -182 103q-32 52 -32 113zM950 0v1131l393 33v-1164h-393z" />
<glyph unicode="&#xfb02;" horiz-adv-x="1466" vert-adv-y="2458" d="M41 806v325h162v92q0 154 98 269q67 80 194 119q93 28 206 28q62 0 165 -7l-41 -340q-62 16 -104 16q-65 0 -97 -33q-25 -25 -25 -60v-84h266v-325h-266v-806h-396v806h-162zM938 0v1450l393 32v-1482h-393z" />
</font>
</defs>
</svg>
